<?xml version="1.0" encoding="UTF-8"?>
<svg id="Layer_1" data-name="Layer 1" xmlns="http://www.w3.org/2000/svg" xmlns:xlink="http://www.w3.org/1999/xlink" viewBox="0 0 1920 1080">
  <defs>
    <style>
      .cls-1 {
        fill: url(#linear-gradient-2);
      }

      .cls-2 {
        fill: #e8e8e7;
      }

      .cls-3 {
        fill: #fff;
      }

      .cls-4 {
        fill: url(#linear-gradient-4);
      }

      .cls-5 {
        fill: url(#linear-gradient-3);
      }

      .cls-6 {
        fill: url(#linear-gradient-5);
      }

      .cls-7 {
        fill: url(#linear-gradient-8);
      }

      .cls-8 {
        fill: url(#linear-gradient-7);
      }

      .cls-9 {
        fill: url(#linear-gradient-6);
      }

      .cls-10 {
        fill: url(#linear-gradient);
      }

      .cls-11 {
        fill: url(#New_Gradient_Swatch_1);
      }
    </style>
    <linearGradient id="linear-gradient" x1="667.55" y1="727.22" x2="722.25" y2="727.22" gradientUnits="userSpaceOnUse">
      <stop offset="0" stop-color="#fff"/>
      <stop offset="1" stop-color="#010101"/>
    </linearGradient>
    <linearGradient id="linear-gradient-2" x1="757.08" x2="819.01" xlink:href="#linear-gradient"/>
    <linearGradient id="linear-gradient-3" x1="853.17" x2="870.59" xlink:href="#linear-gradient"/>
    <linearGradient id="linear-gradient-4" x1="911.07" x2="974.22" xlink:href="#linear-gradient"/>
    <linearGradient id="linear-gradient-5" x1="1010.27" x2="1062.96" xlink:href="#linear-gradient"/>
    <linearGradient id="linear-gradient-6" x1="1101.94" x2="1163.41" xlink:href="#linear-gradient"/>
    <linearGradient id="linear-gradient-7" x1="1197.75" x2="1252.45" xlink:href="#linear-gradient"/>
    <linearGradient id="New_Gradient_Swatch_1" data-name="New Gradient Swatch 1" x1="770.6" y1="810.41" x2="1178.31" y2="622.07" gradientUnits="userSpaceOnUse">
      <stop offset="0" stop-color="#e5b667"/>
      <stop offset=".15" stop-color="#e6c57f"/>
      <stop offset=".45" stop-color="#ebe9b9"/>
      <stop offset=".47" stop-color="#e6e3b2"/>
      <stop offset=".72" stop-color="#baa573"/>
      <stop offset=".91" stop-color="#9f7e4c"/>
      <stop offset="1" stop-color="#95703d"/>
    </linearGradient>
    <linearGradient id="linear-gradient-8" x1="937.39" y1="614.66" x2="998.89" y2="338.93" gradientUnits="userSpaceOnUse">
      <stop offset="0" stop-color="#e5b667"/>
      <stop offset=".02" stop-color="#e5ba6e"/>
      <stop offset=".1" stop-color="#e7ce8e"/>
      <stop offset=".18" stop-color="#e9dda6"/>
      <stop offset=".25" stop-color="#eae5b4"/>
      <stop offset=".32" stop-color="#ebe9b9"/>
      <stop offset=".35" stop-color="#e6e3b2"/>
      <stop offset=".66" stop-color="#baa573"/>
      <stop offset=".88" stop-color="#9f7e4c"/>
      <stop offset="1" stop-color="#95703d"/>
    </linearGradient>
  </defs>
  <rect class="cls-3" width="1920" height="1080"/>
  <rect class="cls-2" x="105.51" y="59.35" width="1708.98" height="961.3"/>
  <g>
    <g>
      <g>
        <path class="cls-10" d="M720.31,706.19c-1.29,1.29-3.14,1.93-5.6,1.93h-11.1v46.03c0,2.45-.65,4.31-1.94,5.6-1.29,1.29-3.16,1.93-5.6,1.93h-9.88v-53.55h-18.65v-7.81c0-2.45.65-4.31,1.94-5.6s3.16-1.93,5.6-1.93h47.16v7.81c0,2.45-.65,4.31-1.94,5.6Z"/>
        <path class="cls-1" d="M772.37,759.74c-1.29,1.29-3.16,1.93-5.6,1.93h-9.69v-68.9h30.02c8.72,0,15.36,2.22,19.92,6.68,4.55,4.46,6.82,10.39,6.82,17.79,0,4.77-1.12,8.85-3.34,12.24-2.22,3.38-5.48,5.96-9.74,7.71l18.27,24.48h-15.06c-2.02,0-3.76-.38-5.23-1.13s-2.77-1.95-3.91-3.58l-11.95-17.13h-8.57v14.31c0,2.45-.64,4.31-1.92,5.6ZM787.76,726.18c2.37,0,4.46-.81,6.25-2.44,1.79-1.64,2.69-3.8,2.69-6.5s-.89-5.05-2.64-6.68c-1.75-1.64-3.86-2.45-6.3-2.45h-13.47v18.07h13.47Z"/>
        <path class="cls-5" d="M860.71,761.67c-2.46,0-4.33-.64-5.6-1.93-1.29-1.29-1.94-3.15-1.94-5.6v-61.37h9.88c2.46,0,4.33.64,5.62,1.93,1.27,1.29,1.92,3.15,1.92,5.6v61.37h-9.88Z"/>
        <path class="cls-4" d="M911.07,692.78h28.14c6.9,0,12.99,1.43,18.25,4.28,5.28,2.86,9.39,6.89,12.33,12.1,2.96,5.21,4.43,11.23,4.43,18.07s-1.45,12.96-4.38,18.17c-2.92,5.21-7.04,9.23-12.33,12.05-5.3,2.82-11.4,4.24-18.3,4.24h-28.14v-68.9ZM939.21,746.33c4.9,0,9.02-1.41,12.42-4.24,3.39-2.82,5.08-7.75,5.08-14.77s-1.7-12.07-5.13-14.92c-3.41-2.85-7.54-4.28-12.37-4.28h-10.83v38.21h10.83Z"/>
        <path class="cls-6" d="M1027.48,719.31h27.78v6.87c0,2.45-.65,4.32-1.94,5.61-1.29,1.29-3.16,1.93-5.6,1.93h-20.24v12.61h27.96c2.44,0,4.31.64,5.6,1.93,1.29,1.29,1.92,3.15,1.92,5.6v7.81h-52.69v-68.9h52.69v7.81c0,2.45-.64,4.31-1.92,5.6-1.29,1.29-3.16,1.93-5.6,1.93h-27.96v11.2Z"/>
        <path class="cls-9" d="M1119.25,726.09v28.05c0,2.45-.64,4.31-1.92,5.6-1.29,1.29-3.16,1.93-5.6,1.93h-9.79v-68.9h4.9l39.16,36.14v-28.61c0-2.45.64-4.31,1.92-5.6,1.29-1.29,3.16-1.93,5.6-1.93h9.89v68.9h-4.8l-39.36-35.58Z"/>
        <path class="cls-8" d="M1250.51,706.19c-1.29,1.29-3.14,1.93-5.6,1.93h-11.1v46.03c0,2.45-.65,4.31-1.94,5.6-1.29,1.29-3.16,1.93-5.6,1.93h-9.88v-53.55h-18.65v-7.81c0-2.45.65-4.31,1.94-5.6,1.29-1.29,3.16-1.93,5.6-1.93h47.16v7.81c0,2.45-.65,4.31-1.94,5.6Z"/>
      </g>
      <g>
        <path class="cls-11" d="M720.31,706.19c-1.29,1.29-3.14,1.93-5.6,1.93h-11.1v46.03c0,2.45-.65,4.31-1.94,5.6-1.29,1.29-3.16,1.93-5.6,1.93h-9.88v-53.55h-18.65v-7.81c0-2.45.65-4.31,1.94-5.6s3.16-1.93,5.6-1.93h47.16v7.81c0,2.45-.65,4.31-1.94,5.6Z"/>
        <path class="cls-11" d="M772.37,759.74c-1.29,1.29-3.16,1.93-5.6,1.93h-9.69v-68.9h30.02c8.72,0,15.36,2.22,19.92,6.68,4.55,4.46,6.82,10.39,6.82,17.79,0,4.77-1.12,8.85-3.34,12.24-2.22,3.38-5.48,5.96-9.74,7.71l18.27,24.48h-15.06c-2.02,0-3.76-.38-5.23-1.13s-2.77-1.95-3.91-3.58l-11.95-17.13h-8.57v14.31c0,2.45-.64,4.31-1.92,5.6ZM787.76,726.18c2.37,0,4.46-.81,6.25-2.44,1.79-1.64,2.69-3.8,2.69-6.5s-.89-5.05-2.64-6.68c-1.75-1.64-3.86-2.45-6.3-2.45h-13.47v18.07h13.47Z"/>
        <path class="cls-11" d="M860.71,761.67c-2.46,0-4.33-.64-5.6-1.93-1.29-1.29-1.94-3.15-1.94-5.6v-61.37h9.88c2.46,0,4.33.64,5.62,1.93,1.27,1.29,1.92,3.15,1.92,5.6v61.37h-9.88Z"/>
        <path class="cls-11" d="M911.07,692.78h28.14c6.9,0,12.99,1.43,18.25,4.28,5.28,2.86,9.39,6.89,12.33,12.1,2.96,5.21,4.43,11.23,4.43,18.07s-1.45,12.96-4.38,18.17c-2.92,5.21-7.04,9.23-12.33,12.05-5.3,2.82-11.4,4.24-18.3,4.24h-28.14v-68.9ZM939.21,746.33c4.9,0,9.02-1.41,12.42-4.24,3.39-2.82,5.08-7.75,5.08-14.77s-1.7-12.07-5.13-14.92c-3.41-2.85-7.54-4.28-12.37-4.28h-10.83v38.21h10.83Z"/>
        <path class="cls-11" d="M1027.48,719.31h27.78v6.87c0,2.45-.65,4.32-1.94,5.61-1.29,1.29-3.16,1.93-5.6,1.93h-20.24v12.61h27.96c2.44,0,4.31.64,5.6,1.93,1.29,1.29,1.92,3.15,1.92,5.6v7.81h-52.69v-68.9h52.69v7.81c0,2.45-.64,4.31-1.92,5.6-1.29,1.29-3.16,1.93-5.6,1.93h-27.96v11.2Z"/>
        <path class="cls-11" d="M1119.25,726.09v28.05c0,2.45-.64,4.31-1.92,5.6-1.29,1.29-3.16,1.93-5.6,1.93h-9.79v-68.9h4.9l39.16,36.14v-28.61c0-2.45.64-4.31,1.92-5.6,1.29-1.29,3.16-1.93,5.6-1.93h9.89v68.9h-4.8l-39.36-35.58Z"/>
        <path class="cls-11" d="M1250.51,706.19c-1.29,1.29-3.14,1.93-5.6,1.93h-11.1v46.03c0,2.45-.65,4.31-1.94,5.6-1.29,1.29-3.16,1.93-5.6,1.93h-9.88v-53.55h-18.65v-7.81c0-2.45.65-4.31,1.94-5.6,1.29-1.29,3.16-1.93,5.6-1.93h47.16v7.81c0,2.45-.65,4.31-1.94,5.6Z"/>
      </g>
    </g>
    <g>
      <path class="cls-3" d="M959.99,318.33c-91.15,0-165.3,74.16-165.3,165.31s74.15,165.31,165.3,165.31,165.31-74.16,165.31-165.31-74.16-165.31-165.31-165.31ZM1121.63,481.84h-65.56c-.23-36.62-7.46-70.33-19.44-97.57,13.31-3.57,26.45-7.79,39.2-13.24,27.95,28.74,45.32,67.77,45.79,110.82ZM1073.09,368.23c-12.34,5.21-25.03,9.29-37.9,12.72-12.72-27.49-30.41-47.76-50.72-56.98,34.22,5.23,64.97,21.08,88.62,44.27ZM935.52,323.97c-20.29,9.21-37.96,29.45-50.68,56.9-12.83-3.43-25.49-7.52-37.84-12.73,23.64-23.13,54.34-38.95,88.51-44.17ZM844.24,370.93c12.76,5.46,25.87,9.68,39.15,13.26-12,27.26-19.24,61-19.47,97.66h-65.56c.48-43.1,17.88-82.16,45.88-110.92ZM798.37,485.42h65.56c.23,36.66,7.47,70.39,19.47,97.66-13.28,3.58-26.39,7.8-39.15,13.26-28-28.75-45.4-67.82-45.88-110.92ZM847,599.13c12.35-5.21,25.01-9.3,37.84-12.73,12.72,27.45,30.39,47.69,50.68,56.9-34.17-5.22-64.87-21.04-88.51-44.17ZM958.2,606.39v38.81c-28.2-.95-53.36-23.97-69.98-59.68,13.5-3.43,27.24-5.86,41.16-7.39-.88-1.09-1.85-2.21-2.86-3.3-13.42,1.6-26.68,4.02-39.72,7.36-11.88-26.88-19.06-60.36-19.29-96.77h22.98c.53-1.2,1.05-2.39,1.52-3.58h-24.49c.23-36.41,7.41-69.89,19.29-96.77,18.3,4.69,36.99,7.7,56.03,8.86l1.23-3.53c-18.97-1.09-37.6-4.02-55.84-8.66,16.63-35.71,41.78-58.73,69.98-59.68v27.85l1.75-5.01,1.83,5.23v-28.07c28.23.95,53.4,24.01,70.03,59.76-18.22,4.61-36.88,7.52-55.91,8.59l1.24,3.53c19.09-1.15,37.81-4.14,56.09-8.8,11.86,26.86,19.02,60.31,19.25,96.69h-24.49c.47,1.19.99,2.39,1.52,3.58h22.97c-.23,36.38-7.4,69.83-19.25,96.69-13.02-3.32-26.28-5.73-39.72-7.31-1.01,1.09-1.98,2.21-2.87,3.3,13.94,1.52,27.68,3.93,41.17,7.34-16.63,35.75-41.8,58.81-70.03,59.76v-38.81h-3.58ZM984.47,643.3c20.31-9.22,38-29.49,50.72-56.98,12.87,3.42,25.56,7.51,37.9,12.72-23.66,23.19-54.4,39.03-88.62,44.27ZM1075.84,596.24c-12.76-5.46-25.89-9.68-39.2-13.24,11.98-27.25,19.21-60.95,19.44-97.57h65.56c-.47,43.05-17.84,82.08-45.79,110.82Z"/>
      <path class="cls-7" d="M1030.87,499.68c-.94-1.45-1.85-2.87-2.7-4.27-4.51-7.5-7.54-16.57-9.29-22.86-1.4-5.08.35-10.49,4.44-13.78l3.04-2.42,1.44-1.15-.91-1.6c-6.49-11.4-3.84-24.04-3.81-24.16l2.21-10.12-6.05,8.41-24.34,33.82-1.54,2.15,2.42,1.07,1.62.72c2.14,1.02,3.69,3.13,4,5.5l6.06,45.41c.08.65.12,1.33.12,2.01,0,7.61-5.7,14.05-13.25,14.98-.47.06-.94.09-1.4.09-4.64,0-8.85-2.93-10.47-7.28-4-10.73-8.92-27.31-9.61-45.36-.41-10.2-.59-19.61-.54-27.97.08-6.62,5.54-12.01,12.18-12.01h3.03l-1-2.86-24.47-69.92-2.03-5.8-2.03,5.8-24.48,69.92-1,2.86h3.03c6.64,0,12.1,5.39,12.18,12.02.06,8.35-.12,17.76-.54,27.96-.7,18.06-5.61,34.64-9.61,45.37-1.62,4.36-5.83,7.28-10.47,7.28-.46,0-.93-.03-1.4-.09-7.55-.93-13.25-7.37-13.25-14.98,0-.68.04-1.36.12-2.04l6.06-45.37c.31-2.37,1.86-4.49,4.05-5.53l1.57-.7,2.42-1.07-1.54-2.15-24.34-33.82-6.05-8.41,2.21,10.13c.03.13,2.68,12.76-3.81,24.16l-.91,1.6,1.44,1.15,3.05,2.43c4.09,3.28,5.83,8.69,4.43,13.78-1.75,6.28-4.78,15.35-9.29,22.86-.85,1.39-1.76,2.81-2.7,4.27-8.6,13.34-19.31,29.94-.08,61.37l1.17,1.91,1.87-1.25c.06-.04,6.23-4.12,14.53-4.12,6.58,0,12.72,2.52,18.26,7.49,11.66,10.45,17.59,20.27,20.48,33.88l.36,1.7h28.54l.36-1.7c2.89-13.61,8.83-23.42,20.48-33.88,5.54-4.97,11.68-7.49,18.26-7.49,8.3,0,14.47,4.08,14.53,4.12l1.86,1.25,1.18-1.91c19.24-31.43,8.53-48.03-.08-61.37ZM968.28,568.74h-16.55l4.29-16.03c-2.61-1.42-4.41-4.16-4.41-7.35,0-4.64,3.76-8.39,8.4-8.39s8.4,3.76,8.4,8.39c0,3.19-1.8,5.92-4.41,7.35l4.29,16.03Z"/>
    </g>
  </g>
</svg>